<?xml version="1.0" encoding="UTF-8" standalone="no"?>
<svg
   xmlns:dc="http://purl.org/dc/elements/1.1/"
   xmlns:cc="http://creativecommons.org/ns#"
   xmlns:rdf="http://www.w3.org/1999/02/22-rdf-syntax-ns#"
   xmlns:svg="http://www.w3.org/2000/svg"
   xmlns="http://www.w3.org/2000/svg"
   viewBox="0 0 1200 675"
   height="675"
   width="1200"
   preserveAspectRatio="xMidYMid meet"
   xml:space="preserve"
   version="1.1"
   id="svg4155"><metadata
     id="metadata4161"><rdf:RDF><cc:Work
         rdf:about=""><dc:format>image/svg+xml</dc:format><dc:type
           rdf:resource="http://purl.org/dc/dcmitype/StillImage" /><dc:title></dc:title></cc:Work></rdf:RDF></metadata><defs
     id="defs4159"><clipPath
       id="clipPath4171"
       clipPathUnits="userSpaceOnUse"><path
         id="path4173"
         d="m 0,2.324581e-5 959.8909,0 0,539.99999675419 L 0,540.00002 0,2.324581e-5 Z" /></clipPath></defs><g
     transform="matrix(1.25,0,0,-1.25,0,675)"
     id="g4163"><g
       id="g4165" /><g
       id="g4167"><g
         clip-path="url(#clipPath4171)"
         id="g4169"><path
           id="path4175"
           style="fill:#ffffff;fill-opacity:1;fill-rule:evenodd;stroke:none"
           d="m 0,539.9999 959.9998,0 0,-539.99986920617 -959.9998,0 L 0,539.9999 Z" /><g
           transform="translate(15.45,250.9071)"
           id="g4177"><text
             id="text4179"
             style="font-variant:normal;font-weight:normal;font-size:24px;font-family:Garamond;-inkscape-font-specification:Garamond;writing-mode:lr-tb;fill:#000000;fill-opacity:1;fill-rule:nonzero;stroke:none"
             transform="matrix(1,0,0,-1,34.24805,-24)"><tspan
               id="tspan4181"
               y="0"
               x="0 13.5 25.2528 37.5 49.5 59.495998 67.5 76.2528">Funders </tspan></text>
</g><path
           id="path4183"
           style="fill:#000000;fill-opacity:1;fill-rule:evenodd;stroke:none"
           d="m 49.44999,223.9071 77.00001,0 0,-2 -77.00001,0 0,2 z" /><g
           transform="translate(15.45,222.9071)"
           id="g4185"><text
             id="text4187"
             style="font-variant:normal;font-weight:normal;font-size:24px;font-family:Garamond;-inkscape-font-specification:Garamond;writing-mode:lr-tb;fill:#000000;fill-opacity:1;fill-rule:nonzero;stroke:none"
             transform="matrix(1,0,0,-1,12.52734,-24)"><tspan
               id="tspan4189"
               y="0"
               x="0 18.504 30.434401 41.2272 51.223202 59.707199 71.954399 90.458397 100.4544 112.7016 119.6976">Government </tspan></text>
</g><g
           transform="translate(15.45,193.9071)"
           id="g4191"><text
             id="text4193"
             style="font-variant:normal;font-weight:normal;font-size:24px;font-family:Garamond;-inkscape-font-specification:Garamond;writing-mode:lr-tb;fill:#000000;fill-opacity:1;fill-rule:nonzero;stroke:none"
             transform="matrix(1,0,0,-1,31.38281,-24)"><tspan
               id="tspan4195"
               y="0"
               x="0 15.2472 27.4944 37.245602 45.249599 50.745602 57.7416 63.237598 73.233597 81.986397">Charities </tspan></text>
</g><g
           transform="translate(15.45,164.9071)"
           id="g4197"><text
             id="text4199"
             style="font-variant:normal;font-weight:normal;font-size:24px;font-family:Garamond;-inkscape-font-specification:Garamond;writing-mode:lr-tb;fill:#000000;fill-opacity:1;fill-rule:nonzero;stroke:none"
             transform="matrix(1,0,0,-1,14.21484,-24)"><tspan
               id="tspan4201"
               y="0"
               x="0 12.5856 24.8328 36.585602 48.832802 60.832802 70.584 77.580002 83.075996 95.323196 107.5704 116.3232">Foundations </tspan></text>
</g><g
           transform="matrix(7.874014e-5,0,0,-7.874014e-5,151.5,231.2501)"
           id="g4203"><path
             id="path4205"
             style="fill:none;stroke:#000000;stroke-width:76200;stroke-linecap:butt;stroke-linejoin:miter;stroke-miterlimit:8;stroke-dasharray:none;stroke-opacity:1"
             d="M -0.09167486,0.02319324 755650,0.02319324" /></g><path
           id="path4207"
           style="fill:#000000;fill-opacity:1;fill-rule:evenodd;stroke:none"
           d="m 199,240.2501 18,-9 -18,-9 0,18 z" /><g
           transform="translate(182.45,245.8259)"
           id="g4209"><text
             id="text4211"
             style="font-variant:normal;font-weight:normal;font-size:24px;font-family:Garamond;-inkscape-font-specification:Garamond;writing-mode:lr-tb;fill:#000000;fill-opacity:1;fill-rule:nonzero;stroke:none"
             transform="matrix(1,0,0,-1,49.83594,-24)"><tspan
               id="tspan4213"
               y="0"
               x="0 14.4024 24.3888 33.151199 43.1376 52.883999 60.878399 70.552803 82.795197">Research </tspan></text>
</g><g
           transform="translate(182.45,217.8259)"
           id="g4215"><text
             id="text4217"
             style="font-variant:normal;font-weight:normal;font-size:24px;font-family:Garamond;-inkscape-font-specification:Garamond;writing-mode:lr-tb;fill:#000000;fill-opacity:1;fill-rule:nonzero;stroke:none"
             transform="matrix(1,0,0,-1,55.16797,-24)"><tspan
               id="tspan4219"
               y="0"
               x="0 16.2528 26.2488 33.244801 38.424 49.672798 55.1688 62.164799 72.160797">Activity </tspan></text>
</g><g
           transform="translate(535.6373,515.8259)"
           id="g4221"><text
             id="text4223"
             style="font-variant:normal;font-weight:bold;font-size:24px;font-family:Garamond;-inkscape-font-specification:Garamond-Bold;writing-mode:lr-tb;fill:#000000;fill-opacity:1;fill-rule:nonzero;stroke:none"
             transform="matrix(1,0,0,-1,0.4374847,-24)"><tspan
               id="tspan4225"
               y="0"
               x="0 18.7512 25.502399 35.498402 45.4944 56.743198 76.991997 83.743202 96.996002 108.492 115.992 122.7432 135.24719 148.5 160.5 173.004 183.996 189.996 206.508 217.75681 227.75281 239.0016 250.4976 258.7464 269.99521 283.24799 289.24799 304.00079 312.4848 324.9888 338.24161 351.49438 362.74319 370.24319 380.2392">Dissemination of Research Products </tspan></text>
</g><g
           transform="matrix(7.874014e-5,0,0,7.874014e-5,331.9998,272)"
           id="g4227"><path
             id="path4229"
             style="fill:none;stroke:#000000;stroke-width:38100;stroke-linecap:butt;stroke-linejoin:miter;stroke-miterlimit:8;stroke-dasharray:none;stroke-opacity:1"
             d="M -0.06457561,-0.1063233 534194.9,785266.8" /></g><path
           id="path4231"
           style="fill:#000000;fill-opacity:1;fill-rule:evenodd;stroke:none"
           d="m 374.4083,326.34 1.3415,9.9725 -8.7829,-4.9103 7.4414,-5.0622 z" /><g
           transform="translate(512.2,479.4743)"
           id="g4233"><text
             id="text4235"
             style="font-variant:normal;font-weight:normal;font-size:24px;font-family:Garamond;-inkscape-font-specification:Garamond;writing-mode:lr-tb;fill:#000000;fill-opacity:1;fill-rule:nonzero;stroke:none"
             transform="matrix(1,0,0,-1,46.00977,-24)"><tspan
               id="tspan4237"
               y="0"
               x="0 18.2472 23.7432 32.495998 39.492001 51.739201 59.743198 65.239197 75.235199 84.986397 90.482399">Historical </tspan></text>
</g><path
           id="path4239"
           style="fill:#000000;fill-opacity:1;fill-rule:evenodd;stroke:none"
           d="m 558.2,452.4743 91,0 0,-2 -91,0 0,2 z" /><g
           transform="translate(733.1998,479.4743)"
           id="g4241"><text
             id="text4243"
             style="font-variant:normal;font-weight:normal;font-size:24px;font-family:Garamond;-inkscape-font-specification:Garamond;writing-mode:lr-tb;fill:#000000;fill-opacity:1;fill-rule:nonzero;stroke:none"
             transform="matrix(1,0,0,-1,53.76172,-24)"><tspan
               id="tspan4245"
               y="0"
               x="0 20.004 32.251202 44.251202 54.2472 62.731201 74.978401">Modern </tspan></text>
</g><path
           id="path4247"
           style="fill:#000000;fill-opacity:1;fill-rule:evenodd;stroke:none"
           d="m 787.1998,452.4743 74,0 0,-2 -74,0 0,2 z" /><g
           transform="matrix(7.874015e-5,0,0,-7.874015e-5,380,446.7227)"
           id="g4249"><path
             id="path4251"
             style="fill:none;stroke:#ffffff;stroke-width:12700;stroke-linecap:butt;stroke-linejoin:round;stroke-miterlimit:10;stroke-dasharray:none;stroke-opacity:1"
             d="m 1638300,1901190 0,3134360" /></g><g
           transform="matrix(7.874015e-5,0,0,-7.874015e-5,380,446.7227)"
           id="g4253"><path
             id="path4255"
             style="fill:none;stroke:#ffffff;stroke-width:12700;stroke-linecap:butt;stroke-linejoin:round;stroke-miterlimit:10;stroke-dasharray:none;stroke-opacity:1"
             d="m 4025900,-6349.834 0,5041899.834" /></g><g
           transform="matrix(7.874015e-5,0,0,-7.874015e-5,380,446.7227)"
           id="g4257"><path
             id="path4259"
             style="fill:none;stroke:#ffffff;stroke-width:38100;stroke-linecap:butt;stroke-linejoin:round;stroke-miterlimit:10;stroke-dasharray:none;stroke-opacity:1"
             d="m 1631950,1920240 5626100,0" /></g><g
           transform="matrix(7.874015e-5,0,0,-7.874015e-5,380,446.7227)"
           id="g4261"><path
             id="path4263"
             style="fill:none;stroke:#ffffff;stroke-width:12700;stroke-linecap:butt;stroke-linejoin:round;stroke-miterlimit:10;stroke-dasharray:none;stroke-opacity:1"
             d="m -6350.017,3474720 7264400.017,0" /></g><g
           transform="matrix(7.874015e-5,0,0,-7.874015e-5,380,446.7227)"
           id="g4265"><path
             id="path4267"
             style="fill:none;stroke:#ffffff;stroke-width:12700;stroke-linecap:butt;stroke-linejoin:round;stroke-miterlimit:10;stroke-dasharray:none;stroke-opacity:1"
             d="m -0.01647952,1920240 0,3115310" /></g><g
           transform="matrix(7.874015e-5,0,0,-7.874015e-5,380,446.7227)"
           id="g4269"><path
             id="path4271"
             style="fill:none;stroke:#ffffff;stroke-width:12700;stroke-linecap:butt;stroke-linejoin:round;stroke-miterlimit:10;stroke-dasharray:none;stroke-opacity:1"
             d="m 7251700,-6349.834 0,5041899.834" /></g><g
           transform="matrix(7.874015e-5,0,0,-7.874015e-5,380,446.7227)"
           id="g4273"><path
             id="path4275"
             style="fill:none;stroke:#ffffff;stroke-width:12700;stroke-linecap:butt;stroke-linejoin:round;stroke-miterlimit:10;stroke-dasharray:none;stroke-opacity:1"
             d="m 1638300,0.1666526 5619750,0" /></g><g
           transform="matrix(7.874015e-5,0,0,-7.874015e-5,380,446.7227)"
           id="g4277"><path
             id="path4279"
             style="fill:none;stroke:#ffffff;stroke-width:12700;stroke-linecap:butt;stroke-linejoin:round;stroke-miterlimit:10;stroke-dasharray:none;stroke-opacity:1"
             d="m -6350.017,5029200 7264400.017,0" /></g><g
           transform="translate(387.2,385.5227)"
           id="g4281"><text
             id="text4283"
             style="font-variant:normal;font-weight:normal;font-size:24px;font-family:Garamond;-inkscape-font-specification:Garamond;writing-mode:lr-tb;fill:#000000;fill-opacity:1;fill-rule:nonzero;stroke:none"
             transform="matrix(1,0,0,-1,0.6582031,-24)"><tspan
               id="tspan4285"
               y="0"
               x="0 20.004 29.755199 41.6856 53.4384 62.1912 72.187202 80.1912 85.687202 97.934402 104.9304 113.6832">Manuscripts </tspan></text>
</g><g
           transform="translate(516.2,443.1227)"
           id="g4287"><text
             id="text4289"
             style="font-variant:normal;font-weight:normal;font-size:24px;font-family:Garamond;-inkscape-font-specification:Garamond;writing-mode:lr-tb;fill:#000000;fill-opacity:1;fill-rule:nonzero;stroke:none"
             transform="matrix(1,0,0,-1,19.75781,-24)"><tspan
               id="tspan4291"
               y="0"
               x="0 7.2648001 19.511999 31.264799 39.748798 51.995998 61.7472 67.243202 73.243202 81.2472 91.243202 98.239197 107.9904 113.4864 125.7336 134.4864">Journal retains </tspan></text>
</g><g
           transform="translate(516.2,415.1227)"
           id="g4293"><text
             id="text4295"
             style="font-variant:normal;font-weight:normal;font-size:24px;font-family:Garamond;-inkscape-font-specification:Garamond;writing-mode:lr-tb;fill:#000000;fill-opacity:1;fill-rule:nonzero;stroke:none"
             transform="matrix(1,0,0,-1,40.38867,-24)"><tspan
               id="tspan4297"
               y="0"
               x="0 9.9960003 22.2432 34.490398 44.486401 52.490398 57.986401 68.733597 80.980797 87.976799 93.225601">copyright; </tspan></text>
</g><g
           transform="translate(516.2,386.1227)"
           id="g4299"><text
             id="text4301"
             style="font-variant:normal;font-weight:normal;font-size:24px;font-family:Garamond;-inkscape-font-specification:Garamond;writing-mode:lr-tb;fill:#000000;fill-opacity:1;fill-rule:nonzero;stroke:none"
             transform="matrix(1,0,0,-1,22.2832,-24)"><tspan
               id="tspan4303"
               y="0"
               x="0 12.7608 22.1952 32.1912 38.1912 45.9384 58.1856 66.189598 72.189598 81.940804 91.936798 101.9328 111.9288 120.6816 129.4344">Pay for access </tspan></text>
</g><g
           transform="translate(516.2,357.1227)"
           id="g4305" /><g
           transform="translate(516.2,328.1227)"
           id="g4307" /><g
           transform="translate(704.1999,443.1227)"
           id="g4309"><text
             id="text4311"
             style="font-variant:normal;font-weight:normal;font-size:24px;font-family:Garamond;-inkscape-font-specification:Garamond;writing-mode:lr-tb;fill:#000000;fill-opacity:1;fill-rule:nonzero;stroke:none"
             transform="matrix(1,0,0,-1,28.00195,-24)"><tspan
               id="tspan4313"
               y="0"
               x="0 18.504 27 45.2472 51.2472 64.7472 76.5 88.7472 94.243202 99.739197 109.7352 115.7352 131.98801 141.98399 151.98 161.976 170.72881 178.7448 183.99361">NIH Public Access, </tspan></text>
</g><g
           transform="translate(704.1999,415.1227)"
           id="g4315"><text
             id="text4317"
             style="font-variant:normal;font-weight:normal;font-size:24px;font-family:Garamond;-inkscape-font-specification:Garamond;writing-mode:lr-tb;fill:#000000;fill-opacity:1;fill-rule:nonzero;stroke:none"
             transform="matrix(1,0,0,-1,28.38281,-24)"><tspan
               id="tspan4319"
               y="0"
               x="0 15.2472 33.751202 48.998402 54.998402 68.498398 80.251198 92.498398 97.9944 103.4904 113.4864 119.4864 135.7392 145.7352 155.7312 165.7272 174.48 183.2328">CDC Public Access </tspan></text>
</g><g
           transform="translate(704.1999,386.1227)"
           id="g4321"><text
             id="text4323"
             style="font-variant:normal;font-weight:normal;font-size:24px;font-family:Garamond;-inkscape-font-specification:Garamond;writing-mode:lr-tb;fill:#000000;fill-opacity:1;fill-rule:nonzero;stroke:none"
             transform="matrix(1,0,0,-1,40.75781,-24)"><tspan
               id="tspan4325"
               y="0"
               x="0 13.5 25.2528 37.5 57.504002 67.5 79.5 85.5 100.7472 110.7432 122.9904 129.9864 137.9904 147.74159 153.23759 158.4864">PubMed Central, </tspan></text>
</g><g
           transform="translate(704.1999,357.1227)"
           id="g4327"><text
             id="text4329"
             style="font-variant:normal;font-weight:normal;font-size:24px;font-family:Garamond;-inkscape-font-specification:Garamond;writing-mode:lr-tb;fill:#000000;fill-opacity:1;fill-rule:nonzero;stroke:none"
             transform="matrix(1,0,0,-1,37.4707,-24)"><tspan
               id="tspan4331"
               y="0"
               x="0 13.5 27.24 39.492001">PLoS</tspan></text>
</g><g
           transform="translate(704.1999,357.1227)"
           id="g4333"><text
             id="text4335"
             style="font-variant:normal;font-weight:normal;font-size:24px;font-family:Garamond;-inkscape-font-specification:Garamond;writing-mode:lr-tb;fill:#000000;fill-opacity:1;fill-rule:nonzero;stroke:none"
             transform="matrix(1,0,0,-1,87.54492,-24)"><tspan
               id="tspan4337"
               y="0"
               x="0 5.2487998">, </tspan></text>
</g><g
           transform="translate(704.1999,357.1227)"
           id="g4339"><text
             id="text4341"
             style="font-variant:normal;font-weight:normal;font-size:24px;font-family:Garamond;-inkscape-font-specification:Garamond;writing-mode:lr-tb;fill:#000000;fill-opacity:1;fill-rule:nonzero;stroke:none"
             transform="matrix(1,0,0,-1,98.79492,-24)"><tspan
               id="tspan4343"
               y="0"
               x="0 9.7511997 17.750401 28.749599 33.916801">arxiv</tspan></text>
</g><g
           transform="translate(704.1999,357.1227)"
           id="g4345"><text
             id="text4347"
             style="font-variant:normal;font-weight:normal;font-size:24px;font-family:Garamond;-inkscape-font-specification:Garamond;writing-mode:lr-tb;fill:#000000;fill-opacity:1;fill-rule:nonzero;stroke:none"
             transform="matrix(1,0,0,-1,141.2754,-24)"><tspan
               id="tspan4349"
               y="0"
               x="0 5.2487998 11.2488 26.0016 46.0056 61.2528">, BMC </tspan></text>
</g><g
           transform="translate(704.1999,328.1227)"
           id="g4351" /><g
           transform="translate(387.2,248.7227)"
           id="g4353"><text
             id="text4355"
             style="font-variant:normal;font-weight:normal;font-size:24px;font-family:Garamond;-inkscape-font-specification:Garamond;writing-mode:lr-tb;fill:#000000;fill-opacity:1;fill-rule:nonzero;stroke:none"
             transform="matrix(1,0,0,-1,35,-24)"><tspan
               id="tspan4357"
               y="0"
               x="0 18.504 28.255199 35.251202 45.002399">Data </tspan></text>
</g><g
           transform="translate(516.2,291.9227)"
           id="g4359"><text
             id="text4361"
             style="font-variant:normal;font-weight:normal;font-size:24px;font-family:Garamond;-inkscape-font-specification:Garamond;writing-mode:lr-tb;fill:#000000;fill-opacity:1;fill-rule:nonzero;stroke:none"
             transform="matrix(1,0,0,-1,46.50586,-24)"><tspan
               id="tspan4363"
               y="0"
               x="0 18.504 30.7512 42.998402 52.9944 58.243198 64.243202 73.9944 80.990402">None; at </tspan></text>
</g><g
           transform="translate(516.2,263.9227)"
           id="g4365"><text
             id="text4367"
             style="font-variant:normal;font-weight:normal;font-size:24px;font-family:Garamond;-inkscape-font-specification:Garamond;writing-mode:lr-tb;fill:#000000;fill-opacity:1;fill-rule:nonzero;stroke:none"
             transform="matrix(1,0,0,-1,28.38867,-24)"><tspan
               id="tspan4369"
               y="0"
               x="0 12 17.496 26.2488 36.244801 44.248798 54.244801 61.240799 66.736801 78.984001 91.231201 97.231201 109.4784 120.3648">discretion of </tspan></text>
</g><g
           transform="translate(516.2,234.9227)"
           id="g4371"><text
             id="text4373"
             style="font-variant:normal;font-weight:normal;font-size:24px;font-family:Garamond;-inkscape-font-specification:Garamond;writing-mode:lr-tb;fill:#000000;fill-opacity:1;fill-rule:nonzero;stroke:none"
             transform="matrix(1,0,0,-1,39.78516,-24)"><tspan
               id="tspan4375"
               y="0"
               x="0 8.0039997 18 26.747999 36.743999 46.5 54.504002 64.188004 76.440002 86.435997 94.440002">researcher </tspan></text>
</g><g
           transform="translate(516.2,205.9227)"
           id="g4377" /><g
           transform="translate(704.1999,291.9227)"
           id="g4379"><text
             id="text4381"
             style="font-variant:normal;font-weight:normal;font-size:24px;font-family:Garamond;-inkscape-font-specification:Garamond;writing-mode:lr-tb;fill:#000000;fill-opacity:1;fill-rule:nonzero;stroke:none"
             transform="matrix(1,0,0,-1,35.09766,-24)"><tspan
               id="tspan4383"
               y="0"
               x="0 18.504 28.5 40.7472 52.9944 62.745602 74.992798">Genbank</tspan></text>
</g><g
           transform="translate(704.1999,291.9227)"
           id="g4385"><text
             id="text4387"
             style="font-variant:normal;font-weight:normal;font-size:24px;font-family:Garamond;-inkscape-font-specification:Garamond;writing-mode:lr-tb;fill:#000000;fill-opacity:1;fill-rule:nonzero;stroke:none"
             transform="matrix(1,0,0,-1,121.3359,-24)"><tspan
               id="tspan4389"
               y="0"
               x="0 5.2487998 11.2488 29.7528 47.0616 63.3144 78.3144 83.563202">, NDAR, </tspan></text>
</g><g
           transform="translate(704.1999,263.9227)"
           id="g4391"><text
             id="text4393"
             style="font-variant:normal;font-weight:normal;font-size:24px;font-family:Garamond;-inkscape-font-specification:Garamond;writing-mode:lr-tb;fill:#000000;fill-opacity:1;fill-rule:nonzero;stroke:none"
             transform="matrix(1,0,0,-1,18.84961,-24)"><tspan
               id="tspan4395"
               y="0"
               x="0 18.504 28.255199 35.251202 45.002399 51.002399 62.498402 74.745598 84.496803 92.500801 97.996803 110.244 120.9912 126.9912 139.5768 151.82401 157.32001 162.81599 172.812 178.308 188.304 197.05679 202.3056">Data Sharing Policies: </tspan></text>
</g><g
           transform="translate(704.1999,234.9227)"
           id="g4397"><text
             id="text4399"
             style="font-variant:normal;font-weight:normal;font-size:24px;font-family:Garamond;-inkscape-font-specification:Garamond;writing-mode:lr-tb;fill:#000000;fill-opacity:1;fill-rule:nonzero;stroke:none"
             transform="matrix(1,0,0,-1,18.32812,-24)"><tspan
               id="tspan4401"
               y="0"
               x="0 18.504 27 45.2472 50.495998">NIH, </tspan></text>
</g><g
           transform="translate(704.1999,234.9227)"
           id="g4403"><text
             id="text4405"
             style="font-variant:normal;font-weight:normal;font-size:24px;font-family:Garamond;-inkscape-font-specification:Garamond;writing-mode:lr-tb;fill:#000000;fill-opacity:1;fill-rule:nonzero;stroke:none"
             transform="matrix(1,0,0,-1,74.82422,-24)"><tspan
               id="tspan4407"
               y="0"
               x="0 19.2768 29.2728 34.768799 40.264801 50.260799 62.507999 81.012001">Wellcome</tspan></text>
</g><g
           transform="translate(704.1999,234.9227)"
           id="g4409"><text
             id="text4411"
             style="font-variant:normal;font-weight:normal;font-size:24px;font-family:Garamond;-inkscape-font-specification:Garamond;writing-mode:lr-tb;fill:#000000;fill-opacity:1;fill-rule:nonzero;stroke:none"
             transform="matrix(1,0,0,-1,171.832,-24)"><tspan
               id="tspan4413"
               y="0"
               x="0 13.5576 22.3344 34.0872 42.84 49.835999">Trust </tspan></text>
</g><g
           transform="translate(704.1999,205.9227)"
           id="g4415" /><g
           transform="translate(387.2,126.3228)"
           id="g4417"><text
             id="text4419"
             style="font-variant:normal;font-weight:normal;font-size:24px;font-family:Garamond;-inkscape-font-specification:Garamond;writing-mode:lr-tb;fill:#000000;fill-opacity:1;fill-rule:nonzero;stroke:none"
             transform="matrix(1,0,0,-1,13.99414,-24)"><tspan
               id="tspan4421"
               y="0"
               x="0 20.004 30 39.756001 48.504002 60.251999 68.255997 78.251999 87">Measures </tspan></text>
</g><g
           transform="translate(516.2,169.5228)"
           id="g4423"><text
             id="text4425"
             style="font-variant:normal;font-weight:normal;font-size:24px;font-family:Garamond;-inkscape-font-specification:Garamond;writing-mode:lr-tb;fill:#000000;fill-opacity:1;fill-rule:nonzero;stroke:none"
             transform="matrix(1,0,0,-1,31.91016,-24)"><tspan
               id="tspan4427"
               y="0"
               x="0 13.5 21.504 33.751202 45.998402 54.002399 59.498402 69.4944 76.490402 86.2416 94.936798 104.9328 110.1816">Proprietary; </tspan></text>
</g><g
           transform="translate(516.2,141.5228)"
           id="g4429"><text
             id="text4431"
             style="font-variant:normal;font-weight:normal;font-size:24px;font-family:Garamond;-inkscape-font-specification:Garamond;writing-mode:lr-tb;fill:#000000;fill-opacity:1;fill-rule:nonzero;stroke:none"
             transform="matrix(1,0,0,-1,21.63281,-24)"><tspan
               id="tspan4433"
               y="0"
               x="0 12.2472 24 36.2472 41.743198 47.239201 55.992001 68.239197 78.235199 86.239197 94.991997 100.992 109.7448 119.7408 125.2368 130.7328">publishers sell </tspan></text>
</g><g
           transform="translate(516.2,112.5228)"
           id="g4435"><text
             id="text4437"
             style="font-variant:normal;font-weight:normal;font-size:24px;font-family:Garamond;-inkscape-font-specification:Garamond;writing-mode:lr-tb;fill:#000000;fill-opacity:1;fill-rule:nonzero;stroke:none"
             transform="matrix(1,0,0,-1,1.6875,-24)"><tspan
               id="tspan4439"
               y="0"
               x="0 9.9960003 22.2432 34.490398 39.986401 49.982399 58.735199 64.735199 76.982399 87.868797 93.868797 112.3728 122.3688 132.12 140.8728 152.6256 160.62959 170.6256">copies of measure </tspan></text>
</g><g
           transform="translate(516.2,83.52274)"
           id="g4441"><text
             id="text4443"
             style="font-variant:normal;font-weight:normal;font-size:24px;font-family:Garamond;-inkscape-font-specification:Garamond;writing-mode:lr-tb;fill:#000000;fill-opacity:1;fill-rule:nonzero;stroke:none"
             transform="matrix(1,0,0,-1,25.62891,-24)"><tspan
               id="tspan4445"
               y="0"
               x="0 9.7511997 21.9984 33.998402 39.998402 58.502399 68.253601 75.249603 85.245598 93.249603 98.745598 108.4968 113.9928 122.7456">and materials </tspan></text>
</g><g
           transform="translate(704.1999,126.3228)"
           id="g4447"><text
             id="text4449"
             style="font-variant:normal;font-weight:bold;font-size:24px;font-family:Garamond;-inkscape-font-specification:Garamond-Bold;writing-mode:lr-tb;fill:#000000;fill-opacity:1;fill-rule:nonzero;stroke:none"
             transform="matrix(1,0,0,-1,1.998047,-24)"><tspan
               id="tspan4451"
               y="0"
               x="0 18.7512 25.502399 35.498402 46.538399 59.791199 66.542397 72.789597 79.540802 87.040802 98.289597 120.2856 131.53439 143.0304 153.0264 166.27921 174.7632 186.01199 196.008 202.2552 214.7592 223.008 236.004">DisabilityMeasures.org </tspan></text>
</g><g
           transform="matrix(7.874014e-5,0,0,-7.874014e-5,333.1248,231.2501)"
           id="g4453"><path
             id="path4455"
             style="fill:none;stroke:#000000;stroke-width:38100;stroke-linecap:butt;stroke-linejoin:miter;stroke-miterlimit:8;stroke-dasharray:none;stroke-opacity:1"
             d="m 0.05004835,0.05425999 773112.64995165,0" /></g><path
           id="path4457"
           style="fill:#000000;fill-opacity:1;fill-rule:evenodd;stroke:none"
           d="m 387.9998,235.7501 9,-4.5 -9,-4.5 0,9 z" /><g
           transform="matrix(7.874014e-5,0,0,-7.874014e-5,329.9996,201.6874)"
           id="g4459"><path
             id="path4461"
             style="fill:none;stroke:#000000;stroke-width:38100;stroke-linecap:butt;stroke-linejoin:miter;stroke-miterlimit:8;stroke-dasharray:none;stroke-opacity:1"
             d="M -0.03149498,-0.03741434 546649.2,790198.2" /></g><path
           id="path4463"
           style="fill:#000000;fill-opacity:1;fill-rule:evenodd;stroke:none"
           d="m 373.33,146.9616 1.4196,-9.9617 -8.8211,4.8414 7.4015,5.1203 z" /></g></g></g></svg>
